<svg width="34" height="22" viewBox="0 0 34 22" fill="none" xmlns="http://www.w3.org/2000/svg">
<path fill-rule="evenodd" clip-rule="evenodd" d="M8.42963 4.2142L11.5266 19.7802L28.3366 18.7912L31.7276 4.0342H20.0506L8.42963 4.2142ZM11.0356 21.0172C10.7506 21.0172 10.5006 20.8152 10.4446 20.5312L7.13863 3.9112L4.56963 1.2072H0.603634C0.270634 1.2072 -0.000366211 0.9372 -0.000366211 0.6042C-0.000366211 0.2702 0.270634 0.000200272 0.603634 0.000200272H4.82863C4.99463 0.000200272 5.15263 0.0682003 5.26663 0.1882L7.95163 3.0142L20.0416 2.8272H32.4856C32.6696 2.8272 32.8436 2.9112 32.9576 3.0552C33.0726 3.1992 33.1156 3.3872 33.0736 3.5662L29.4116 19.5022C29.3516 19.7632 29.1266 19.9542 28.8596 19.9692L11.0726 21.0162C11.0606 21.0172 11.0486 21.0172 11.0356 21.0172Z" fill="#231F20"/>
</svg>
